<?xml version="1.0" encoding="UTF-8"?>
<svg id="Camada_2" data-name="Camada 2" xmlns="http://www.w3.org/2000/svg" viewBox="0 0 500 500">
  <defs>
    <style>
      .cls-1 {
        fill: #fff;
      }

      .cls-1,
      .cls-2 {
        stroke-width: 0px;
      }

      .cls-2 {
        fill: #4F3FFF;
      }
    </style>
  </defs>
  <g id="Camada_1-2" data-name="Camada 1">
    <g>
      <rect class="cls-2" width="500" height="500" rx="77.39" ry="77.39" />
      <path class="cls-1"
        d="M366.14,143.66h0c-27.21-29.1-65.06-43.66-113.55-43.66s-81.91,13.99-110.3,41.7c-28.39,27.71-42.29,63.53-42.29,107.18s14.19,82.56,42.58,109.98c10.05,9.51,21.29,17.63,33.71,23.79h0c21.88,11.19,47.31,16.79,76.29,17.35h73.04v-55.69h-73.04c-24.25-.84-44.36-7.56-60.33-19.87-5.91-4.48-11.24-10.35-15.38-15.95h0c-7.69-10.35-12.12-22.39-13.9-36.1h235.68c5.32-56.53-5.32-99.35-32.53-128.73h0ZM164.17,222.29c4.73-22.11,15.38-38.9,31.64-50.93,16.26-12.03,35.78-17.91,58.55-17.91s44.95,5.88,60.33,17.91c15.67,12.03,23.95,29.1,25.73,50.93h-176.25Z" />
    </g>
  </g>
</svg>