<?xml version="1.0" encoding="UTF-8"?>
<svg id="Camada_2" data-name="Camada 2" xmlns="http://www.w3.org/2000/svg" viewBox="0 0 538 180.7">
  <defs>
    <style>
      .cls-1 {
        fill: #f3f3f5;
        stroke-width: 0px;
      }
    </style>
  </defs>
  <g id="Camada_1-2" data-name="Camada 1">
    <g id="Engix_Tech" data-name="Engix Tech">
      <g>
        <path class="cls-1"
          d="M453,121v7.3h7.9v2h-7.9v14.8c0,1.9.3,3.3.9,4.2s1.7,1.4,3.4,1.4,2.3-.3,3.5-1l.8,2c-1.6.8-3.1,1.2-4.4,1.2-2.4,0-4-.7-5.1-2s-1.5-3.3-1.5-5.8v-14.8h-5v-2h5v-7.1l2.3-.2h.1Z" />
        <path class="cls-1"
          d="M467.3,149.6c-2.3-2.3-3.3-5.3-3.3-9.1s1.1-6.6,3.4-9,5.1-3.6,8.4-3.6,6.5,1.2,8.7,3.5,3.2,5.7,2.8,10.2h-20.9c.2,2.8,1.2,5,3.1,6.6,1.8,1.6,3.9,2.5,6.4,2.5s3.2-.3,4.8-1c1.5-.7,2.8-1.6,3.6-2.7l1.6,1.4c-1.1,1.5-2.6,2.7-4.4,3.5s-3.7,1.2-5.6,1.2c-3.3,0-6.2-1.1-8.4-3.4h-.2v-.1ZM485.2,139.5c0-3-.9-5.3-2.6-6.9-1.7-1.6-4-2.5-6.8-2.5s-4.6.8-6.4,2.5c-1.8,1.7-2.8,4-3.1,6.8h18.9v.1Z" />
        <path class="cls-1"
          d="M512,149.4c-2.3,2.4-5.2,3.6-8.5,3.6s-6.2-1.2-8.5-3.5-3.4-5.3-3.4-9.1,1.1-6.8,3.4-9.1,5.2-3.4,8.5-3.4,6.1,1.2,8.5,3.6l-1.4,1.5c-1.8-1.9-4.2-2.9-7-2.9s-5.1.9-6.9,2.8-2.8,4.4-2.8,7.5,1,5.7,2.8,7.5,4.2,2.8,6.9,2.8,5-1,6.9-3l1.5,1.6h0v.1Z" />
        <path class="cls-1"
          d="M519.8,118.2v14.7c1.7-3.2,4.5-4.8,8.4-4.9,3.2,0,5.5,1,7.3,2.9,1.6,1.9,2.5,4.5,2.5,7.8v13.9h-2.3v-13.9c0-2.6-.6-4.7-1.8-6.2s-3.2-2.2-5.6-2.2-4.4.9-5.9,2.6c-1.5,1.7-2.3,3.9-2.3,6.4v13.3h-2.3v-34.5h2.2-.2v.1Z" />
      </g>
      <path class="cls-1"
        d="M90,22.4h0c-9.2-10.4-22-15.6-38.4-15.6s-27.7,5-37.3,14.9C4.7,31.6,0,44.4,0,60s4.8,29.5,14.4,39.3c3.4,3.4,7.2,6.3,11.4,8.5h0c7.4,4,16,6,25.8,6.2h24.7v-19.9h-24.7c-8.2-.3-15-2.7-20.4-7.1-2-1.6-3.8-3.7-5.2-5.7h0c-2.6-3.7-4.1-8-4.7-12.9h79.7c1.8-20.2-1.8-35.5-11-46h0ZM21.7,50.5c1.6-7.9,5.2-13.9,10.7-18.2s12.1-6.4,19.8-6.4,15.2,2.1,20.4,6.4c5.3,4.3,8.1,10.4,8.7,18.2H21.7Z" />
      <path class="cls-1"
        d="M203.4,114.2v-57.2c0-9.4-2.4-16.9-7.3-22.4-4.9-5.6-11.7-8.3-20.4-8.3s-15.2,3.1-20.6,9.3-8.1,13.8-8.1,22.7v55.9h-21.5V7.2h19.6l1.2,15.6c9.7-11.4,21.2-17.1,34.6-17.1s23.5,4.5,31.8,13.6c8.3,9.1,12.4,21.6,12.4,37.5v57.4h-21.7Z" />
      <path class="cls-1"
        d="M338.8.1l15.7,12.6-12.3,14.9c8.3,10.1,12.5,21.2,12.5,33.1s-2.3,18.1-6.9,25.3c-4.6,7.2-11.4,12.6-20.4,16.2,18.1,6.4,27.1,18,27.1,34.9s-5.4,24.4-16.3,32.1c-10.9,7.7-23.8,11.5-38.7,11.5s-30.3-4.2-40.1-12.7c-9.8-8.4-14.5-20-14-34.8h21.5c-.3,7.9,2.8,14.2,9.3,18.7s14.2,6.9,23.4,7c8.8,0,16.4-1.9,22.9-5.6,6.5-3.8,9.8-9.2,9.8-16.2s-3-13.1-8.9-17.1-13.8-6.1-23.4-6.1c-16.8,0-30.3-4.8-40.4-14.3-10.1-9.5-15.2-22.5-15.2-39s5.4-30.1,16.4-39.5c11-9.5,24.1-14.2,39.2-14.2s20.7,2.5,27.7,7.4l11.3-14.3h-.2v.1ZM275.8,36.4c-6.6,5.7-9.9,13.8-9.9,24.4s3.2,18.3,9.7,24c6.5,5.8,14.5,8.7,24.3,8.7s17.6-3.1,23.9-9.2c6.3-6.1,9.5-14,9.5-23.5s-3.2-18.1-9.7-24-14.3-8.9-23.7-8.9-17.5,2.9-24.1,8.6h0v-.1Z" />
      <rect class="cls-1" x="376.3" y="6.9" width="21.5" height="107.2" />
      <path class="cls-1"
        d="M486.6,7.4h26.1v.6l-34.6,51.8,36.9,53.7v.7h-25.8l-25.2-38.8-25.2,38.8h-25.8v-.7l36.9-53.7-34.6-51.8v-.6h25.8l22.9,38.1,22.7-38.1h-.1Z" />
    </g>
  </g>
</svg>